<?xml version="1.0" encoding="UTF-8" standalone="no"?>
<!DOCTYPE svg PUBLIC "-//W3C//DTD SVG 1.1//EN"
 "http://www.w3.org/Graphics/SVG/1.1/DTD/svg11.dtd">
<!-- Generated by graphviz version 2.43.0 (0)
 -->
<!-- Title: AST Pages: 1 -->
<svg width="975pt" height="450pt"
 viewBox="0.00 0.00 974.50 450.00" xmlns="http://www.w3.org/2000/svg" xmlns:xlink="http://www.w3.org/1999/xlink">
<g id="graph0" class="graph" transform="scale(1 1) rotate(0) translate(4 446)">
<title>AST</title>
<polygon fill="white" stroke="transparent" points="-4,4 -4,-446 970.5,-446 970.5,4 -4,4"/>
<!-- n1 -->
<g id="node1" class="node">
<title>n1</title>
<path fill="#e8e8e8" stroke="#333333" stroke-width="1.6" d="M631.5,-442C631.5,-442 589.5,-442 589.5,-442 583.5,-442 577.5,-436 577.5,-430 577.5,-430 577.5,-418 577.5,-418 577.5,-412 583.5,-406 589.5,-406 589.5,-406 631.5,-406 631.5,-406 637.5,-406 643.5,-412 643.5,-418 643.5,-418 643.5,-430 643.5,-430 643.5,-436 637.5,-442 631.5,-442"/>
<text text-anchor="middle" x="610.5" y="-421.5" font-family="Helvetica,sans-Serif" font-size="10.00">SelectStmt</text>
</g>
<!-- n3 -->
<g id="node2" class="node">
<title>n3</title>
<path fill="#f2f2f2" stroke="#333333" stroke-width="1.1" d="M188.5,-376C188.5,-376 152.5,-376 152.5,-376 146.5,-376 140.5,-370 140.5,-364 140.5,-364 140.5,-352 140.5,-352 140.5,-346 146.5,-340 152.5,-340 152.5,-340 188.5,-340 188.5,-340 194.5,-340 200.5,-346 200.5,-352 200.5,-352 200.5,-364 200.5,-364 200.5,-370 194.5,-376 188.5,-376"/>
<text text-anchor="middle" x="170.5" y="-355.5" font-family="Helvetica,sans-Serif" font-size="10.00">SelectList</text>
</g>
<!-- n1&#45;&gt;n3 -->
<g id="edge1" class="edge">
<title>n1&#45;&gt;n3</title>
<path fill="none" stroke="#888888" stroke-width="0.9" d="M577.43,-418.19C496.81,-406.46 290.61,-376.47 206.77,-364.28"/>
<polygon fill="#888888" stroke="#888888" stroke-width="0.9" points="206.95,-362.18 200.71,-363.39 206.35,-366.34 206.95,-362.18"/>
</g>
<!-- n14 -->
<g id="node13" class="node">
<title>n14</title>
<path fill="#f2f2f2" stroke="#333333" stroke-width="1.1" d="M423.5,-376C423.5,-376 377.5,-376 377.5,-376 371.5,-376 365.5,-370 365.5,-364 365.5,-364 365.5,-352 365.5,-352 365.5,-346 371.5,-340 377.5,-340 377.5,-340 423.5,-340 423.5,-340 429.5,-340 435.5,-346 435.5,-352 435.5,-352 435.5,-364 435.5,-364 435.5,-370 429.5,-376 423.5,-376"/>
<text text-anchor="middle" x="400.5" y="-355.5" font-family="Helvetica,sans-Serif" font-size="10.00">FromClause</text>
</g>
<!-- n1&#45;&gt;n14 -->
<g id="edge12" class="edge">
<title>n1&#45;&gt;n14</title>
<path fill="none" stroke="#888888" stroke-width="0.9" d="M577.3,-414.27C544.01,-405.33 491.39,-390.71 446.5,-376 444.83,-375.45 443.13,-374.88 441.42,-374.3"/>
<polygon fill="#888888" stroke="#888888" stroke-width="0.9" points="441.92,-372.25 435.57,-372.27 440.54,-376.22 441.92,-372.25"/>
</g>
<!-- n23 -->
<g id="node20" class="node">
<title>n23</title>
<path fill="#f2f2f2" stroke="#333333" stroke-width="1.1" d="M522,-376C522,-376 469,-376 469,-376 463,-376 457,-370 457,-364 457,-364 457,-352 457,-352 457,-346 463,-340 469,-340 469,-340 522,-340 522,-340 528,-340 534,-346 534,-352 534,-352 534,-364 534,-364 534,-370 528,-376 522,-376"/>
<text text-anchor="middle" x="495.5" y="-355.5" font-family="Helvetica,sans-Serif" font-size="10.00">WhereClause</text>
</g>
<!-- n1&#45;&gt;n23 -->
<g id="edge19" class="edge">
<title>n1&#45;&gt;n23</title>
<path fill="none" stroke="#888888" stroke-width="0.9" d="M579.68,-405.85C564.99,-397.67 547.3,-387.83 531.95,-379.28"/>
<polygon fill="#888888" stroke="#888888" stroke-width="0.9" points="532.67,-377.28 526.4,-376.2 530.62,-380.95 532.67,-377.28"/>
</g>
<!-- n24 -->
<g id="node24" class="node">
<title>n24</title>
<path fill="#f2f2f2" stroke="#333333" stroke-width="1.1" d="M642.5,-376C642.5,-376 578.5,-376 578.5,-376 572.5,-376 566.5,-370 566.5,-364 566.5,-364 566.5,-352 566.5,-352 566.5,-346 572.5,-340 578.5,-340 578.5,-340 642.5,-340 642.5,-340 648.5,-340 654.5,-346 654.5,-352 654.5,-352 654.5,-364 654.5,-364 654.5,-370 648.5,-376 642.5,-376"/>
<text text-anchor="middle" x="610.5" y="-355.5" font-family="Helvetica,sans-Serif" font-size="10.00">GroupByClause</text>
</g>
<!-- n1&#45;&gt;n24 -->
<g id="edge23" class="edge">
<title>n1&#45;&gt;n24</title>
<path fill="none" stroke="#888888" stroke-width="0.9" d="M610.5,-405.85C610.5,-398.68 610.5,-390.22 610.5,-382.49"/>
<polygon fill="#888888" stroke="#888888" stroke-width="0.9" points="612.6,-382.2 610.5,-376.2 608.4,-382.2 612.6,-382.2"/>
</g>
<!-- n31 -->
<g id="node27" class="node">
<title>n31</title>
<path fill="#f2f2f2" stroke="#333333" stroke-width="1.1" d="M748.5,-376C748.5,-376 692.5,-376 692.5,-376 686.5,-376 680.5,-370 680.5,-364 680.5,-364 680.5,-352 680.5,-352 680.5,-346 686.5,-340 692.5,-340 692.5,-340 748.5,-340 748.5,-340 754.5,-340 760.5,-346 760.5,-352 760.5,-352 760.5,-364 760.5,-364 760.5,-370 754.5,-376 748.5,-376"/>
<text text-anchor="middle" x="720.5" y="-355.5" font-family="Helvetica,sans-Serif" font-size="10.00">HavingClause</text>
</g>
<!-- n1&#45;&gt;n31 -->
<g id="edge26" class="edge">
<title>n1&#45;&gt;n31</title>
<path fill="none" stroke="#888888" stroke-width="0.9" d="M639.98,-405.85C654.03,-397.67 670.95,-387.83 685.64,-379.28"/>
<polygon fill="#888888" stroke="#888888" stroke-width="0.9" points="686.81,-381.03 690.94,-376.2 684.7,-377.4 686.81,-381.03"/>
</g>
<!-- n33 -->
<g id="node32" class="node">
<title>n33</title>
<path fill="#f2f2f2" stroke="#333333" stroke-width="1.1" d="M857,-376C857,-376 796,-376 796,-376 790,-376 784,-370 784,-364 784,-364 784,-352 784,-352 784,-346 790,-340 796,-340 796,-340 857,-340 857,-340 863,-340 869,-346 869,-352 869,-352 869,-364 869,-364 869,-370 863,-376 857,-376"/>
<text text-anchor="middle" x="826.5" y="-355.5" font-family="Helvetica,sans-Serif" font-size="10.00">OrderByClause</text>
</g>
<!-- n1&#45;&gt;n33 -->
<g id="edge31" class="edge">
<title>n1&#45;&gt;n33</title>
<path fill="none" stroke="#888888" stroke-width="0.9" d="M643.62,-413.37C676,-403.93 726.67,-389.09 770.5,-376 772.91,-375.28 775.38,-374.54 777.87,-373.79"/>
<polygon fill="#888888" stroke="#888888" stroke-width="0.9" points="778.57,-375.77 783.71,-372.03 777.36,-371.75 778.57,-375.77"/>
</g>
<!-- n35 -->
<g id="node34" class="node">
<title>n35</title>
<path fill="#f2f2f2" stroke="#333333" stroke-width="1.1" d="M949.5,-376C949.5,-376 903.5,-376 903.5,-376 897.5,-376 891.5,-370 891.5,-364 891.5,-364 891.5,-352 891.5,-352 891.5,-346 897.5,-340 903.5,-340 903.5,-340 949.5,-340 949.5,-340 955.5,-340 961.5,-346 961.5,-352 961.5,-352 961.5,-364 961.5,-364 961.5,-370 955.5,-376 949.5,-376"/>
<text text-anchor="middle" x="926.5" y="-355.5" font-family="Helvetica,sans-Serif" font-size="10.00">LimitClause</text>
</g>
<!-- n1&#45;&gt;n35 -->
<g id="edge33" class="edge">
<title>n1&#45;&gt;n35</title>
<path fill="none" stroke="#888888" stroke-width="0.9" d="M643.61,-419.1C694.78,-412.66 795.89,-398.24 879.5,-376 881.43,-375.49 883.39,-374.93 885.36,-374.34"/>
<polygon fill="#888888" stroke="#888888" stroke-width="0.9" points="886.2,-376.28 891.29,-372.48 884.94,-372.27 886.2,-376.28"/>
</g>
<!-- n2 -->
<g id="node3" class="node">
<title>n2</title>
<path fill="#fbfbfb" stroke="#333333" stroke-width="0.8" d="M55,-307.5C55,-307.5 12,-307.5 12,-307.5 6,-307.5 0,-301.5 0,-295.5 0,-295.5 0,-283.5 0,-283.5 0,-277.5 6,-271.5 12,-271.5 12,-271.5 55,-271.5 55,-271.5 61,-271.5 67,-277.5 67,-283.5 67,-283.5 67,-295.5 67,-295.5 67,-301.5 61,-307.5 55,-307.5"/>
<text text-anchor="middle" x="33.5" y="-292.5" font-family="Helvetica,sans-Serif" font-size="10.00">ColumnRef</text>
<text text-anchor="middle" x="33.5" y="-281.5" font-family="Helvetica,sans-Serif" font-size="10.00">d.name</text>
</g>
<!-- n3&#45;&gt;n2 -->
<g id="edge2" class="edge">
<title>n3&#45;&gt;n2</title>
<path fill="none" stroke="#888888" stroke-width="0.9" d="M140.43,-342.41C120.62,-332.79 94.47,-320.09 72.99,-309.67"/>
<polygon fill="#888888" stroke="#888888" stroke-width="0.9" points="73.66,-307.66 67.35,-306.93 71.83,-311.44 73.66,-307.66"/>
</g>
<!-- n4 -->
<g id="node4" class="node">
<title>n4</title>
<path fill="#ffffff" stroke="#333333" stroke-width="1.1" d="M148,-310C148,-310 99,-310 99,-310 93,-310 87,-304 87,-298 87,-298 87,-281 87,-281 87,-275 93,-269 99,-269 99,-269 148,-269 148,-269 154,-269 160,-275 160,-281 160,-281 160,-298 160,-298 160,-304 154,-310 148,-310"/>
<text text-anchor="middle" x="123.5" y="-298" font-family="Helvetica,sans-Serif" font-size="10.00">FunctionCall</text>
<text text-anchor="middle" x="123.5" y="-287" font-family="Helvetica,sans-Serif" font-size="10.00">COUNT</text>
<text text-anchor="middle" x="123.5" y="-276" font-family="Helvetica,sans-Serif" font-size="10.00">(n)</text>
</g>
<!-- n3&#45;&gt;n4 -->
<g id="edge3" class="edge">
<title>n3&#45;&gt;n4</title>
<path fill="none" stroke="#888888" stroke-width="0.9" d="M158.4,-339.87C153.08,-332.35 146.74,-323.38 140.93,-315.16"/>
<polygon fill="#888888" stroke="#888888" stroke-width="0.9" points="142.57,-313.84 137.39,-310.16 139.14,-316.27 142.57,-313.84"/>
</g>
<!-- n6 -->
<g id="node6" class="node">
<title>n6</title>
<path fill="#ffffff" stroke="#333333" stroke-width="1.1" d="M241,-307.5C241,-307.5 192,-307.5 192,-307.5 186,-307.5 180,-301.5 180,-295.5 180,-295.5 180,-283.5 180,-283.5 180,-277.5 186,-271.5 192,-271.5 192,-271.5 241,-271.5 241,-271.5 247,-271.5 253,-277.5 253,-283.5 253,-283.5 253,-295.5 253,-295.5 253,-301.5 247,-307.5 241,-307.5"/>
<text text-anchor="middle" x="216.5" y="-292.5" font-family="Helvetica,sans-Serif" font-size="10.00">FunctionCall</text>
<text text-anchor="middle" x="216.5" y="-281.5" font-family="Helvetica,sans-Serif" font-size="10.00">RANK</text>
</g>
<!-- n3&#45;&gt;n6 -->
<g id="edge5" class="edge">
<title>n3&#45;&gt;n6</title>
<path fill="none" stroke="#888888" stroke-width="0.9" d="M182.35,-339.87C187.99,-331.72 194.82,-321.85 200.88,-313.09"/>
<polygon fill="#888888" stroke="#888888" stroke-width="0.9" points="202.85,-313.93 204.53,-307.8 199.39,-311.54 202.85,-313.93"/>
</g>
<!-- n5 -->
<g id="node5" class="node">
<title>n5</title>
<path fill="#fbfbfb" stroke="#333333" stroke-width="0.8" d="M138.5,-236.5C138.5,-236.5 108.5,-236.5 108.5,-236.5 102.5,-236.5 96.5,-230.5 96.5,-224.5 96.5,-224.5 96.5,-212.5 96.5,-212.5 96.5,-206.5 102.5,-200.5 108.5,-200.5 108.5,-200.5 138.5,-200.5 138.5,-200.5 144.5,-200.5 150.5,-206.5 150.5,-212.5 150.5,-212.5 150.5,-224.5 150.5,-224.5 150.5,-230.5 144.5,-236.5 138.5,-236.5"/>
<text text-anchor="middle" x="123.5" y="-216" font-family="Helvetica,sans-Serif" font-size="10.00">Star</text>
</g>
<!-- n4&#45;&gt;n5 -->
<g id="edge4" class="edge">
<title>n4&#45;&gt;n5</title>
<path fill="none" stroke="#888888" stroke-width="0.9" d="M123.5,-268.91C123.5,-260.7 123.5,-251.1 123.5,-242.56"/>
<polygon fill="#888888" stroke="#888888" stroke-width="0.9" points="125.6,-242.56 123.5,-236.56 121.4,-242.56 125.6,-242.56"/>
</g>
<!-- n7 -->
<g id="node7" class="node">
<title>n7</title>
<path fill="#f2f2f2" stroke="#333333" stroke-width="1.1" d="M242,-236.5C242,-236.5 191,-236.5 191,-236.5 185,-236.5 179,-230.5 179,-224.5 179,-224.5 179,-212.5 179,-212.5 179,-206.5 185,-200.5 191,-200.5 191,-200.5 242,-200.5 242,-200.5 248,-200.5 254,-206.5 254,-212.5 254,-212.5 254,-224.5 254,-224.5 254,-230.5 248,-236.5 242,-236.5"/>
<text text-anchor="middle" x="216.5" y="-216" font-family="Helvetica,sans-Serif" font-size="10.00">WindowSpec</text>
</g>
<!-- n6&#45;&gt;n7 -->
<g id="edge6" class="edge">
<title>n6&#45;&gt;n7</title>
<path fill="none" stroke="#888888" stroke-width="0.9" d="M216.5,-271.44C216.5,-262.88 216.5,-252.38 216.5,-243.06"/>
<polygon fill="#888888" stroke="#888888" stroke-width="0.9" points="218.6,-242.84 216.5,-236.84 214.4,-242.84 218.6,-242.84"/>
</g>
<!-- n8 -->
<g id="node8" class="node">
<title>n8</title>
<path fill="#f2f2f2" stroke="#333333" stroke-width="1.1" d="M163.5,-168C163.5,-168 121.5,-168 121.5,-168 115.5,-168 109.5,-162 109.5,-156 109.5,-156 109.5,-144 109.5,-144 109.5,-138 115.5,-132 121.5,-132 121.5,-132 163.5,-132 163.5,-132 169.5,-132 175.5,-138 175.5,-144 175.5,-144 175.5,-156 175.5,-156 175.5,-162 169.5,-168 163.5,-168"/>
<text text-anchor="middle" x="142.5" y="-147.5" font-family="Helvetica,sans-Serif" font-size="10.00">PartitionBy</text>
</g>
<!-- n7&#45;&gt;n8 -->
<g id="edge7" class="edge">
<title>n7&#45;&gt;n8</title>
<path fill="none" stroke="#888888" stroke-width="0.9" d="M197.44,-200.37C187.86,-191.76 176.16,-181.25 166.03,-172.14"/>
<polygon fill="#888888" stroke="#888888" stroke-width="0.9" points="167.36,-170.52 161.49,-168.07 164.55,-173.64 167.36,-170.52"/>
</g>
<!-- n12 -->
<g id="node10" class="node">
<title>n12</title>
<path fill="#f2f2f2" stroke="#333333" stroke-width="1.1" d="M269,-168C269,-168 208,-168 208,-168 202,-168 196,-162 196,-156 196,-156 196,-144 196,-144 196,-138 202,-132 208,-132 208,-132 269,-132 269,-132 275,-132 281,-138 281,-144 281,-144 281,-156 281,-156 281,-162 275,-168 269,-168"/>
<text text-anchor="middle" x="238.5" y="-147.5" font-family="Helvetica,sans-Serif" font-size="10.00">OrderByClause</text>
</g>
<!-- n7&#45;&gt;n12 -->
<g id="edge9" class="edge">
<title>n7&#45;&gt;n12</title>
<path fill="none" stroke="#888888" stroke-width="0.9" d="M222.17,-200.37C224.81,-192.37 228.01,-182.72 230.86,-174.08"/>
<polygon fill="#888888" stroke="#888888" stroke-width="0.9" points="232.89,-174.65 232.78,-168.3 228.9,-173.34 232.89,-174.65"/>
</g>
<!-- n9 -->
<g id="node9" class="node">
<title>n9</title>
<path fill="#fbfbfb" stroke="#333333" stroke-width="0.8" d="M164,-102C164,-102 121,-102 121,-102 115,-102 109,-96 109,-90 109,-90 109,-78 109,-78 109,-72 115,-66 121,-66 121,-66 164,-66 164,-66 170,-66 176,-72 176,-78 176,-78 176,-90 176,-90 176,-96 170,-102 164,-102"/>
<text text-anchor="middle" x="142.5" y="-87" font-family="Helvetica,sans-Serif" font-size="10.00">ColumnRef</text>
<text text-anchor="middle" x="142.5" y="-76" font-family="Helvetica,sans-Serif" font-size="10.00">d.id</text>
</g>
<!-- n8&#45;&gt;n9 -->
<g id="edge8" class="edge">
<title>n8&#45;&gt;n9</title>
<path fill="none" stroke="#888888" stroke-width="0.9" d="M142.5,-131.85C142.5,-124.68 142.5,-116.22 142.5,-108.49"/>
<polygon fill="#888888" stroke="#888888" stroke-width="0.9" points="144.6,-108.2 142.5,-102.2 140.4,-108.2 144.6,-108.2"/>
</g>
<!-- n10 -->
<g id="node11" class="node">
<title>n10</title>
<path fill="#ffffff" stroke="#333333" stroke-width="1.1" d="M263,-102C263,-102 214,-102 214,-102 208,-102 202,-96 202,-90 202,-90 202,-78 202,-78 202,-72 208,-66 214,-66 214,-66 263,-66 263,-66 269,-66 275,-72 275,-78 275,-78 275,-90 275,-90 275,-96 269,-102 263,-102"/>
<text text-anchor="middle" x="238.5" y="-87" font-family="Helvetica,sans-Serif" font-size="10.00">FunctionCall</text>
<text text-anchor="middle" x="238.5" y="-76" font-family="Helvetica,sans-Serif" font-size="10.00">SUM</text>
</g>
<!-- n12&#45;&gt;n10 -->
<g id="edge10" class="edge">
<title>n12&#45;&gt;n10</title>
<path fill="none" stroke="#888888" stroke-width="0.9" d="M238.5,-131.85C238.5,-124.68 238.5,-116.22 238.5,-108.49"/>
<polygon fill="#888888" stroke="#888888" stroke-width="0.9" points="240.6,-108.2 238.5,-102.2 236.4,-108.2 240.6,-108.2"/>
</g>
<!-- n11 -->
<g id="node12" class="node">
<title>n11</title>
<path fill="#fbfbfb" stroke="#333333" stroke-width="0.8" d="M260,-36C260,-36 217,-36 217,-36 211,-36 205,-30 205,-24 205,-24 205,-12 205,-12 205,-6 211,0 217,0 217,0 260,0 260,0 266,0 272,-6 272,-12 272,-12 272,-24 272,-24 272,-30 266,-36 260,-36"/>
<text text-anchor="middle" x="238.5" y="-21" font-family="Helvetica,sans-Serif" font-size="10.00">ColumnRef</text>
<text text-anchor="middle" x="238.5" y="-10" font-family="Helvetica,sans-Serif" font-size="10.00">e.salary</text>
</g>
<!-- n10&#45;&gt;n11 -->
<g id="edge11" class="edge">
<title>n10&#45;&gt;n11</title>
<path fill="none" stroke="#888888" stroke-width="0.9" d="M238.5,-65.85C238.5,-58.68 238.5,-50.22 238.5,-42.49"/>
<polygon fill="#888888" stroke="#888888" stroke-width="0.9" points="240.6,-42.2 238.5,-36.2 236.4,-42.2 240.6,-42.2"/>
</g>
<!-- n13 -->
<g id="node14" class="node">
<title>n13</title>
<path fill="#fbfbfb" stroke="#333333" stroke-width="0.8" d="M336,-310C336,-310 285,-310 285,-310 279,-310 273,-304 273,-298 273,-298 273,-281 273,-281 273,-275 279,-269 285,-269 285,-269 336,-269 336,-269 342,-269 348,-275 348,-281 348,-281 348,-298 348,-298 348,-304 342,-310 336,-310"/>
<text text-anchor="middle" x="310.5" y="-298" font-family="Helvetica,sans-Serif" font-size="10.00">TableRef</text>
<text text-anchor="middle" x="310.5" y="-287" font-family="Helvetica,sans-Serif" font-size="10.00">departments</text>
<text text-anchor="middle" x="310.5" y="-276" font-family="Helvetica,sans-Serif" font-size="10.00">(d)</text>
</g>
<!-- n14&#45;&gt;n13 -->
<g id="edge13" class="edge">
<title>n14&#45;&gt;n13</title>
<path fill="none" stroke="#888888" stroke-width="0.9" d="M377.32,-339.87C366.57,-331.93 353.62,-322.36 341.99,-313.77"/>
<polygon fill="#888888" stroke="#888888" stroke-width="0.9" points="343.18,-312.03 337.1,-310.16 340.68,-315.41 343.18,-312.03"/>
</g>
<!-- n15 -->
<g id="node15" class="node">
<title>n15</title>
<path fill="#f2f2f2" stroke="#333333" stroke-width="1.1" d="M420.5,-307.5C420.5,-307.5 380.5,-307.5 380.5,-307.5 374.5,-307.5 368.5,-301.5 368.5,-295.5 368.5,-295.5 368.5,-283.5 368.5,-283.5 368.5,-277.5 374.5,-271.5 380.5,-271.5 380.5,-271.5 420.5,-271.5 420.5,-271.5 426.5,-271.5 432.5,-277.5 432.5,-283.5 432.5,-283.5 432.5,-295.5 432.5,-295.5 432.5,-301.5 426.5,-307.5 420.5,-307.5"/>
<text text-anchor="middle" x="400.5" y="-292.5" font-family="Helvetica,sans-Serif" font-size="10.00">JoinClause</text>
<text text-anchor="middle" x="400.5" y="-281.5" font-family="Helvetica,sans-Serif" font-size="10.00">JOIN</text>
</g>
<!-- n14&#45;&gt;n15 -->
<g id="edge14" class="edge">
<title>n14&#45;&gt;n15</title>
<path fill="none" stroke="#888888" stroke-width="0.9" d="M400.5,-339.87C400.5,-331.95 400.5,-322.41 400.5,-313.83"/>
<polygon fill="#888888" stroke="#888888" stroke-width="0.9" points="402.6,-313.8 400.5,-307.8 398.4,-313.8 402.6,-313.8"/>
</g>
<!-- n16 -->
<g id="node16" class="node">
<title>n16</title>
<path fill="#fbfbfb" stroke="#333333" stroke-width="0.8" d="M334,-239C334,-239 291,-239 291,-239 285,-239 279,-233 279,-227 279,-227 279,-210 279,-210 279,-204 285,-198 291,-198 291,-198 334,-198 334,-198 340,-198 346,-204 346,-210 346,-210 346,-227 346,-227 346,-233 340,-239 334,-239"/>
<text text-anchor="middle" x="312.5" y="-227" font-family="Helvetica,sans-Serif" font-size="10.00">TableRef</text>
<text text-anchor="middle" x="312.5" y="-216" font-family="Helvetica,sans-Serif" font-size="10.00">employees</text>
<text text-anchor="middle" x="312.5" y="-205" font-family="Helvetica,sans-Serif" font-size="10.00">(e)</text>
</g>
<!-- n15&#45;&gt;n16 -->
<g id="edge15" class="edge">
<title>n15&#45;&gt;n16</title>
<path fill="none" stroke="#888888" stroke-width="0.9" d="M378.75,-271.44C367.79,-262.85 354.34,-252.31 342.42,-242.96"/>
<polygon fill="#888888" stroke="#888888" stroke-width="0.9" points="343.44,-241.09 337.42,-239.04 340.85,-244.4 343.44,-241.09"/>
</g>
<!-- n19 -->
<g id="node17" class="node">
<title>n19</title>
<path fill="#ffffff" stroke="#333333" stroke-width="1.1" d="M420.5,-236.5C420.5,-236.5 378.5,-236.5 378.5,-236.5 372.5,-236.5 366.5,-230.5 366.5,-224.5 366.5,-224.5 366.5,-212.5 366.5,-212.5 366.5,-206.5 372.5,-200.5 378.5,-200.5 378.5,-200.5 420.5,-200.5 420.5,-200.5 426.5,-200.5 432.5,-206.5 432.5,-212.5 432.5,-212.5 432.5,-224.5 432.5,-224.5 432.5,-230.5 426.5,-236.5 420.5,-236.5"/>
<text text-anchor="middle" x="399.5" y="-221.5" font-family="Helvetica,sans-Serif" font-size="10.00">BinaryExpr</text>
<text text-anchor="middle" x="399.5" y="-210.5" font-family="Helvetica,sans-Serif" font-size="10.00">=</text>
</g>
<!-- n15&#45;&gt;n19 -->
<g id="edge16" class="edge">
<title>n15&#45;&gt;n19</title>
<path fill="none" stroke="#888888" stroke-width="0.9" d="M400.25,-271.44C400.13,-262.88 399.98,-252.38 399.84,-243.06"/>
<polygon fill="#888888" stroke="#888888" stroke-width="0.9" points="401.94,-242.81 399.75,-236.84 397.74,-242.87 401.94,-242.81"/>
</g>
<!-- n17 -->
<g id="node18" class="node">
<title>n17</title>
<path fill="#fbfbfb" stroke="#333333" stroke-width="0.8" d="M378,-168C378,-168 335,-168 335,-168 329,-168 323,-162 323,-156 323,-156 323,-144 323,-144 323,-138 329,-132 335,-132 335,-132 378,-132 378,-132 384,-132 390,-138 390,-144 390,-144 390,-156 390,-156 390,-162 384,-168 378,-168"/>
<text text-anchor="middle" x="356.5" y="-153" font-family="Helvetica,sans-Serif" font-size="10.00">ColumnRef</text>
<text text-anchor="middle" x="356.5" y="-142" font-family="Helvetica,sans-Serif" font-size="10.00">d.id</text>
</g>
<!-- n19&#45;&gt;n17 -->
<g id="edge17" class="edge">
<title>n19&#45;&gt;n17</title>
<path fill="none" stroke="#888888" stroke-width="0.9" d="M388.43,-200.37C383.15,-192.22 376.77,-182.35 371.1,-173.59"/>
<polygon fill="#888888" stroke="#888888" stroke-width="0.9" points="372.71,-172.2 367.69,-168.3 369.18,-174.48 372.71,-172.2"/>
</g>
<!-- n18 -->
<g id="node19" class="node">
<title>n18</title>
<path fill="#fbfbfb" stroke="#333333" stroke-width="0.8" d="M465,-168C465,-168 422,-168 422,-168 416,-168 410,-162 410,-156 410,-156 410,-144 410,-144 410,-138 416,-132 422,-132 422,-132 465,-132 465,-132 471,-132 477,-138 477,-144 477,-144 477,-156 477,-156 477,-162 471,-168 465,-168"/>
<text text-anchor="middle" x="443.5" y="-153" font-family="Helvetica,sans-Serif" font-size="10.00">ColumnRef</text>
<text text-anchor="middle" x="443.5" y="-142" font-family="Helvetica,sans-Serif" font-size="10.00">e.dept_id</text>
</g>
<!-- n19&#45;&gt;n18 -->
<g id="edge18" class="edge">
<title>n19&#45;&gt;n18</title>
<path fill="none" stroke="#888888" stroke-width="0.9" d="M410.83,-200.37C416.23,-192.22 422.76,-182.35 428.56,-173.59"/>
<polygon fill="#888888" stroke="#888888" stroke-width="0.9" points="430.49,-174.46 432.05,-168.3 426.99,-172.14 430.49,-174.46"/>
</g>
<!-- n22 -->
<g id="node21" class="node">
<title>n22</title>
<path fill="#ffffff" stroke="#333333" stroke-width="1.1" d="M507.5,-307.5C507.5,-307.5 465.5,-307.5 465.5,-307.5 459.5,-307.5 453.5,-301.5 453.5,-295.5 453.5,-295.5 453.5,-283.5 453.5,-283.5 453.5,-277.5 459.5,-271.5 465.5,-271.5 465.5,-271.5 507.5,-271.5 507.5,-271.5 513.5,-271.5 519.5,-277.5 519.5,-283.5 519.5,-283.5 519.5,-295.5 519.5,-295.5 519.5,-301.5 513.5,-307.5 507.5,-307.5"/>
<text text-anchor="middle" x="486.5" y="-292.5" font-family="Helvetica,sans-Serif" font-size="10.00">BinaryExpr</text>
<text text-anchor="middle" x="486.5" y="-281.5" font-family="Helvetica,sans-Serif" font-size="10.00">=</text>
</g>
<!-- n23&#45;&gt;n22 -->
<g id="edge20" class="edge">
<title>n23&#45;&gt;n22</title>
<path fill="none" stroke="#888888" stroke-width="0.9" d="M493.18,-339.87C492.11,-331.95 490.82,-322.41 489.66,-313.83"/>
<polygon fill="#888888" stroke="#888888" stroke-width="0.9" points="491.73,-313.46 488.84,-307.8 487.56,-314.03 491.73,-313.46"/>
</g>
<!-- n20 -->
<g id="node22" class="node">
<title>n20</title>
<path fill="#fbfbfb" stroke="#333333" stroke-width="0.8" d="M508,-236.5C508,-236.5 465,-236.5 465,-236.5 459,-236.5 453,-230.5 453,-224.5 453,-224.5 453,-212.5 453,-212.5 453,-206.5 459,-200.5 465,-200.5 465,-200.5 508,-200.5 508,-200.5 514,-200.5 520,-206.5 520,-212.5 520,-212.5 520,-224.5 520,-224.5 520,-230.5 514,-236.5 508,-236.5"/>
<text text-anchor="middle" x="486.5" y="-221.5" font-family="Helvetica,sans-Serif" font-size="10.00">ColumnRef</text>
<text text-anchor="middle" x="486.5" y="-210.5" font-family="Helvetica,sans-Serif" font-size="10.00">e.active</text>
</g>
<!-- n22&#45;&gt;n20 -->
<g id="edge21" class="edge">
<title>n22&#45;&gt;n20</title>
<path fill="none" stroke="#888888" stroke-width="0.9" d="M486.5,-271.44C486.5,-262.88 486.5,-252.38 486.5,-243.06"/>
<polygon fill="#888888" stroke="#888888" stroke-width="0.9" points="488.6,-242.84 486.5,-236.84 484.4,-242.84 488.6,-242.84"/>
</g>
<!-- n21 -->
<g id="node23" class="node">
<title>n21</title>
<path fill="#ffffff" stroke="#333333" stroke-width="0.8" d="M611,-236.5C611,-236.5 552,-236.5 552,-236.5 546,-236.5 540,-230.5 540,-224.5 540,-224.5 540,-212.5 540,-212.5 540,-206.5 546,-200.5 552,-200.5 552,-200.5 611,-200.5 611,-200.5 617,-200.5 623,-206.5 623,-212.5 623,-212.5 623,-224.5 623,-224.5 623,-230.5 617,-236.5 611,-236.5"/>
<text text-anchor="middle" x="581.5" y="-221.5" font-family="Helvetica,sans-Serif" font-size="10.00">BooleanLiteral</text>
<text text-anchor="middle" x="581.5" y="-210.5" font-family="Helvetica,sans-Serif" font-size="10.00">true</text>
</g>
<!-- n22&#45;&gt;n21 -->
<g id="edge22" class="edge">
<title>n22&#45;&gt;n21</title>
<path fill="none" stroke="#888888" stroke-width="0.9" d="M509.98,-271.44C523,-261.99 539.28,-250.16 553.02,-240.18"/>
<polygon fill="#888888" stroke="#888888" stroke-width="0.9" points="554.34,-241.82 557.96,-236.6 551.87,-238.43 554.34,-241.82"/>
</g>
<!-- n25 -->
<g id="node25" class="node">
<title>n25</title>
<path fill="#fbfbfb" stroke="#333333" stroke-width="0.8" d="M595,-307.5C595,-307.5 552,-307.5 552,-307.5 546,-307.5 540,-301.5 540,-295.5 540,-295.5 540,-283.5 540,-283.5 540,-277.5 546,-271.5 552,-271.5 552,-271.5 595,-271.5 595,-271.5 601,-271.5 607,-277.5 607,-283.5 607,-283.5 607,-295.5 607,-295.5 607,-301.5 601,-307.5 595,-307.5"/>
<text text-anchor="middle" x="573.5" y="-292.5" font-family="Helvetica,sans-Serif" font-size="10.00">ColumnRef</text>
<text text-anchor="middle" x="573.5" y="-281.5" font-family="Helvetica,sans-Serif" font-size="10.00">d.id</text>
</g>
<!-- n24&#45;&gt;n25 -->
<g id="edge24" class="edge">
<title>n24&#45;&gt;n25</title>
<path fill="none" stroke="#888888" stroke-width="0.9" d="M600.97,-339.87C596.43,-331.72 590.94,-321.85 586.07,-313.09"/>
<polygon fill="#888888" stroke="#888888" stroke-width="0.9" points="587.88,-312.02 583.12,-307.8 584.21,-314.06 587.88,-312.02"/>
</g>
<!-- n26 -->
<g id="node26" class="node">
<title>n26</title>
<path fill="#fbfbfb" stroke="#333333" stroke-width="0.8" d="M682,-307.5C682,-307.5 639,-307.5 639,-307.5 633,-307.5 627,-301.5 627,-295.5 627,-295.5 627,-283.5 627,-283.5 627,-277.5 633,-271.5 639,-271.5 639,-271.5 682,-271.5 682,-271.5 688,-271.5 694,-277.5 694,-283.5 694,-283.5 694,-295.5 694,-295.5 694,-301.5 688,-307.5 682,-307.5"/>
<text text-anchor="middle" x="660.5" y="-292.5" font-family="Helvetica,sans-Serif" font-size="10.00">ColumnRef</text>
<text text-anchor="middle" x="660.5" y="-281.5" font-family="Helvetica,sans-Serif" font-size="10.00">d.name</text>
</g>
<!-- n24&#45;&gt;n26 -->
<g id="edge25" class="edge">
<title>n24&#45;&gt;n26</title>
<path fill="none" stroke="#888888" stroke-width="0.9" d="M623.38,-339.87C629.51,-331.72 636.93,-321.85 643.52,-313.09"/>
<polygon fill="#888888" stroke="#888888" stroke-width="0.9" points="645.57,-313.86 647.49,-307.8 642.21,-311.33 645.57,-313.86"/>
</g>
<!-- n30 -->
<g id="node28" class="node">
<title>n30</title>
<path fill="#ffffff" stroke="#333333" stroke-width="1.1" d="M768.5,-307.5C768.5,-307.5 726.5,-307.5 726.5,-307.5 720.5,-307.5 714.5,-301.5 714.5,-295.5 714.5,-295.5 714.5,-283.5 714.5,-283.5 714.5,-277.5 720.5,-271.5 726.5,-271.5 726.5,-271.5 768.5,-271.5 768.5,-271.5 774.5,-271.5 780.5,-277.5 780.5,-283.5 780.5,-283.5 780.5,-295.5 780.5,-295.5 780.5,-301.5 774.5,-307.5 768.5,-307.5"/>
<text text-anchor="middle" x="747.5" y="-292.5" font-family="Helvetica,sans-Serif" font-size="10.00">BinaryExpr</text>
<text text-anchor="middle" x="747.5" y="-281.5" font-family="Helvetica,sans-Serif" font-size="10.00">&gt;</text>
</g>
<!-- n31&#45;&gt;n30 -->
<g id="edge27" class="edge">
<title>n31&#45;&gt;n30</title>
<path fill="none" stroke="#888888" stroke-width="0.9" d="M727.45,-339.87C730.7,-331.87 734.62,-322.22 738.13,-313.58"/>
<polygon fill="#888888" stroke="#888888" stroke-width="0.9" points="740.17,-314.15 740.48,-307.8 736.27,-312.57 740.17,-314.15"/>
</g>
<!-- n27 -->
<g id="node29" class="node">
<title>n27</title>
<path fill="#ffffff" stroke="#333333" stroke-width="1.1" d="M738,-236.5C738,-236.5 689,-236.5 689,-236.5 683,-236.5 677,-230.5 677,-224.5 677,-224.5 677,-212.5 677,-212.5 677,-206.5 683,-200.5 689,-200.5 689,-200.5 738,-200.5 738,-200.5 744,-200.5 750,-206.5 750,-212.5 750,-212.5 750,-224.5 750,-224.5 750,-230.5 744,-236.5 738,-236.5"/>
<text text-anchor="middle" x="713.5" y="-221.5" font-family="Helvetica,sans-Serif" font-size="10.00">FunctionCall</text>
<text text-anchor="middle" x="713.5" y="-210.5" font-family="Helvetica,sans-Serif" font-size="10.00">COUNT</text>
</g>
<!-- n30&#45;&gt;n27 -->
<g id="edge28" class="edge">
<title>n30&#45;&gt;n27</title>
<path fill="none" stroke="#888888" stroke-width="0.9" d="M739.1,-271.44C734.76,-262.64 729.4,-251.77 724.71,-242.26"/>
<polygon fill="#888888" stroke="#888888" stroke-width="0.9" points="726.58,-241.29 722.04,-236.84 722.81,-243.15 726.58,-241.29"/>
</g>
<!-- n29 -->
<g id="node31" class="node">
<title>n29</title>
<path fill="#ffffff" stroke="#333333" stroke-width="0.8" d="M836.5,-236.5C836.5,-236.5 782.5,-236.5 782.5,-236.5 776.5,-236.5 770.5,-230.5 770.5,-224.5 770.5,-224.5 770.5,-212.5 770.5,-212.5 770.5,-206.5 776.5,-200.5 782.5,-200.5 782.5,-200.5 836.5,-200.5 836.5,-200.5 842.5,-200.5 848.5,-206.5 848.5,-212.5 848.5,-212.5 848.5,-224.5 848.5,-224.5 848.5,-230.5 842.5,-236.5 836.5,-236.5"/>
<text text-anchor="middle" x="809.5" y="-221.5" font-family="Helvetica,sans-Serif" font-size="10.00">IntegerLiteral</text>
<text text-anchor="middle" x="809.5" y="-210.5" font-family="Helvetica,sans-Serif" font-size="10.00">5</text>
</g>
<!-- n30&#45;&gt;n29 -->
<g id="edge30" class="edge">
<title>n30&#45;&gt;n29</title>
<path fill="none" stroke="#888888" stroke-width="0.9" d="M762.83,-271.44C770.96,-262.39 781.05,-251.16 789.77,-241.46"/>
<polygon fill="#888888" stroke="#888888" stroke-width="0.9" points="791.47,-242.71 793.92,-236.84 788.35,-239.9 791.47,-242.71"/>
</g>
<!-- n28 -->
<g id="node30" class="node">
<title>n28</title>
<path fill="#fbfbfb" stroke="#333333" stroke-width="0.8" d="M728.5,-168C728.5,-168 698.5,-168 698.5,-168 692.5,-168 686.5,-162 686.5,-156 686.5,-156 686.5,-144 686.5,-144 686.5,-138 692.5,-132 698.5,-132 698.5,-132 728.5,-132 728.5,-132 734.5,-132 740.5,-138 740.5,-144 740.5,-144 740.5,-156 740.5,-156 740.5,-162 734.5,-168 728.5,-168"/>
<text text-anchor="middle" x="713.5" y="-147.5" font-family="Helvetica,sans-Serif" font-size="10.00">Star</text>
</g>
<!-- n27&#45;&gt;n28 -->
<g id="edge29" class="edge">
<title>n27&#45;&gt;n28</title>
<path fill="none" stroke="#888888" stroke-width="0.9" d="M713.5,-200.37C713.5,-192.45 713.5,-182.91 713.5,-174.33"/>
<polygon fill="#888888" stroke="#888888" stroke-width="0.9" points="715.6,-174.3 713.5,-168.3 711.4,-174.3 715.6,-174.3"/>
</g>
<!-- n32 -->
<g id="node33" class="node">
<title>n32</title>
<path fill="#fbfbfb" stroke="#333333" stroke-width="0.8" d="M856,-307.5C856,-307.5 813,-307.5 813,-307.5 807,-307.5 801,-301.5 801,-295.5 801,-295.5 801,-283.5 801,-283.5 801,-277.5 807,-271.5 813,-271.5 813,-271.5 856,-271.5 856,-271.5 862,-271.5 868,-277.5 868,-283.5 868,-283.5 868,-295.5 868,-295.5 868,-301.5 862,-307.5 856,-307.5"/>
<text text-anchor="middle" x="834.5" y="-292.5" font-family="Helvetica,sans-Serif" font-size="10.00">ColumnRef</text>
<text text-anchor="middle" x="834.5" y="-281.5" font-family="Helvetica,sans-Serif" font-size="10.00">n</text>
</g>
<!-- n33&#45;&gt;n32 -->
<g id="edge32" class="edge">
<title>n33&#45;&gt;n32</title>
<path fill="none" stroke="#888888" stroke-width="0.9" d="M828.56,-339.87C829.51,-331.95 830.66,-322.41 831.69,-313.83"/>
<polygon fill="#888888" stroke="#888888" stroke-width="0.9" points="833.79,-314.01 832.42,-307.8 829.62,-313.5 833.79,-314.01"/>
</g>
<!-- n34 -->
<g id="node35" class="node">
<title>n34</title>
<path fill="#ffffff" stroke="#333333" stroke-width="0.8" d="M954.5,-307.5C954.5,-307.5 900.5,-307.5 900.5,-307.5 894.5,-307.5 888.5,-301.5 888.5,-295.5 888.5,-295.5 888.5,-283.5 888.5,-283.5 888.5,-277.5 894.5,-271.5 900.5,-271.5 900.5,-271.5 954.5,-271.5 954.5,-271.5 960.5,-271.5 966.5,-277.5 966.5,-283.5 966.5,-283.5 966.5,-295.5 966.5,-295.5 966.5,-301.5 960.5,-307.5 954.5,-307.5"/>
<text text-anchor="middle" x="927.5" y="-292.5" font-family="Helvetica,sans-Serif" font-size="10.00">IntegerLiteral</text>
<text text-anchor="middle" x="927.5" y="-281.5" font-family="Helvetica,sans-Serif" font-size="10.00">10</text>
</g>
<!-- n35&#45;&gt;n34 -->
<g id="edge34" class="edge">
<title>n35&#45;&gt;n34</title>
<path fill="none" stroke="#888888" stroke-width="0.9" d="M926.76,-339.87C926.88,-331.95 927.02,-322.41 927.15,-313.83"/>
<polygon fill="#888888" stroke="#888888" stroke-width="0.9" points="929.25,-313.83 927.24,-307.8 925.05,-313.77 929.25,-313.83"/>
</g>
</g>
</svg>
