<?xml version="1.0" encoding="UTF-8" standalone="no"?>
<!DOCTYPE svg PUBLIC "-//W3C//DTD SVG 1.1//EN"
 "http://www.w3.org/Graphics/SVG/1.1/DTD/svg11.dtd">
<!-- Generated by graphviz version 2.43.0 (0)
 -->
<!-- Title: AST Pages: 1 -->
<svg width="752pt" height="582pt"
 viewBox="0.00 0.00 752.00 582.00" xmlns="http://www.w3.org/2000/svg" xmlns:xlink="http://www.w3.org/1999/xlink">
<g id="graph0" class="graph" transform="scale(1 1) rotate(0) translate(4 578)">
<title>AST</title>
<polygon fill="white" stroke="transparent" points="-4,4 -4,-578 748,-578 748,4 -4,4"/>
<!-- n25 -->
<g id="node1" class="node">
<title>n25</title>
<path fill="#e8e8e8" stroke="#333333" stroke-width="1.6" d="M434.5,-574C434.5,-574 392.5,-574 392.5,-574 386.5,-574 380.5,-568 380.5,-562 380.5,-562 380.5,-550 380.5,-550 380.5,-544 386.5,-538 392.5,-538 392.5,-538 434.5,-538 434.5,-538 440.5,-538 446.5,-544 446.5,-550 446.5,-550 446.5,-562 446.5,-562 446.5,-568 440.5,-574 434.5,-574"/>
<text text-anchor="middle" x="413.5" y="-553.5" font-family="Helvetica,sans-Serif" font-size="10.00">SelectStmt</text>
</g>
<!-- n1 -->
<g id="node2" class="node">
<title>n1</title>
<path fill="#f2f2f2" stroke="#333333" stroke-width="1.1" d="M350.5,-508C350.5,-508 310.5,-508 310.5,-508 304.5,-508 298.5,-502 298.5,-496 298.5,-496 298.5,-484 298.5,-484 298.5,-478 304.5,-472 310.5,-472 310.5,-472 350.5,-472 350.5,-472 356.5,-472 362.5,-478 362.5,-484 362.5,-484 362.5,-496 362.5,-496 362.5,-502 356.5,-508 350.5,-508"/>
<text text-anchor="middle" x="330.5" y="-487.5" font-family="Helvetica,sans-Serif" font-size="10.00">CTEClause</text>
</g>
<!-- n25&#45;&gt;n1 -->
<g id="edge1" class="edge">
<title>n25&#45;&gt;n1</title>
<path fill="none" stroke="#888888" stroke-width="0.9" d="M391.26,-537.85C380.93,-529.89 368.56,-520.35 357.68,-511.96"/>
<polygon fill="#888888" stroke="#888888" stroke-width="0.9" points="358.84,-510.2 352.8,-508.2 356.27,-513.53 358.84,-510.2"/>
</g>
<!-- n27 -->
<g id="node26" class="node">
<title>n27</title>
<path fill="#f2f2f2" stroke="#333333" stroke-width="1.1" d="M431.5,-508C431.5,-508 395.5,-508 395.5,-508 389.5,-508 383.5,-502 383.5,-496 383.5,-496 383.5,-484 383.5,-484 383.5,-478 389.5,-472 395.5,-472 395.5,-472 431.5,-472 431.5,-472 437.5,-472 443.5,-478 443.5,-484 443.5,-484 443.5,-496 443.5,-496 443.5,-502 437.5,-508 431.5,-508"/>
<text text-anchor="middle" x="413.5" y="-487.5" font-family="Helvetica,sans-Serif" font-size="10.00">SelectList</text>
</g>
<!-- n25&#45;&gt;n27 -->
<g id="edge25" class="edge">
<title>n25&#45;&gt;n27</title>
<path fill="none" stroke="#888888" stroke-width="0.9" d="M413.5,-537.85C413.5,-530.68 413.5,-522.22 413.5,-514.49"/>
<polygon fill="#888888" stroke="#888888" stroke-width="0.9" points="415.6,-514.2 413.5,-508.2 411.4,-514.2 415.6,-514.2"/>
</g>
<!-- n29 -->
<g id="node28" class="node">
<title>n29</title>
<path fill="#f2f2f2" stroke="#333333" stroke-width="1.1" d="M521.5,-508C521.5,-508 475.5,-508 475.5,-508 469.5,-508 463.5,-502 463.5,-496 463.5,-496 463.5,-484 463.5,-484 463.5,-478 469.5,-472 475.5,-472 475.5,-472 521.5,-472 521.5,-472 527.5,-472 533.5,-478 533.5,-484 533.5,-484 533.5,-496 533.5,-496 533.5,-502 527.5,-508 521.5,-508"/>
<text text-anchor="middle" x="498.5" y="-487.5" font-family="Helvetica,sans-Serif" font-size="10.00">FromClause</text>
</g>
<!-- n25&#45;&gt;n29 -->
<g id="edge27" class="edge">
<title>n25&#45;&gt;n29</title>
<path fill="none" stroke="#888888" stroke-width="0.9" d="M436.28,-537.85C446.85,-529.89 459.52,-520.35 470.66,-511.96"/>
<polygon fill="#888888" stroke="#888888" stroke-width="0.9" points="472.13,-513.48 475.66,-508.2 469.6,-510.13 472.13,-513.48"/>
</g>
<!-- n2 -->
<g id="node3" class="node">
<title>n2</title>
<path fill="#ffffff" stroke="#333333" stroke-width="0.8" d="M356,-442C356,-442 301,-442 301,-442 295,-442 289,-436 289,-430 289,-430 289,-418 289,-418 289,-412 295,-406 301,-406 301,-406 356,-406 356,-406 362,-406 368,-412 368,-418 368,-418 368,-430 368,-430 368,-436 362,-442 356,-442"/>
<text text-anchor="middle" x="328.5" y="-427" font-family="Helvetica,sans-Serif" font-size="10.00">CTEDefinition</text>
<text text-anchor="middle" x="328.5" y="-416" font-family="Helvetica,sans-Serif" font-size="10.00">ancestors</text>
</g>
<!-- n1&#45;&gt;n2 -->
<g id="edge2" class="edge">
<title>n1&#45;&gt;n2</title>
<path fill="none" stroke="#888888" stroke-width="0.9" d="M329.96,-471.85C329.74,-464.68 329.48,-456.22 329.23,-448.49"/>
<polygon fill="#888888" stroke="#888888" stroke-width="0.9" points="331.32,-448.13 329.04,-442.2 327.13,-448.26 331.32,-448.13"/>
</g>
<!-- n13 -->
<g id="node4" class="node">
<title>n13</title>
<path fill="#e8e8e8" stroke="#333333" stroke-width="1.6" d="M348.5,-376C348.5,-376 308.5,-376 308.5,-376 302.5,-376 296.5,-370 296.5,-364 296.5,-364 296.5,-352 296.5,-352 296.5,-346 302.5,-340 308.5,-340 308.5,-340 348.5,-340 348.5,-340 354.5,-340 360.5,-346 360.5,-352 360.5,-352 360.5,-364 360.5,-364 360.5,-370 354.5,-376 348.5,-376"/>
<text text-anchor="middle" x="328.5" y="-361" font-family="Helvetica,sans-Serif" font-size="10.00">UnionStmt</text>
<text text-anchor="middle" x="328.5" y="-350" font-family="Helvetica,sans-Serif" font-size="10.00">UNION</text>
</g>
<!-- n2&#45;&gt;n13 -->
<g id="edge3" class="edge">
<title>n2&#45;&gt;n13</title>
<path fill="none" stroke="#888888" stroke-width="0.9" d="M328.5,-405.85C328.5,-398.68 328.5,-390.22 328.5,-382.49"/>
<polygon fill="#888888" stroke="#888888" stroke-width="0.9" points="330.6,-382.2 328.5,-376.2 326.4,-382.2 330.6,-382.2"/>
</g>
<!-- n3 -->
<g id="node5" class="node">
<title>n3</title>
<path fill="#e8e8e8" stroke="#333333" stroke-width="1.6" d="M271.5,-310C271.5,-310 229.5,-310 229.5,-310 223.5,-310 217.5,-304 217.5,-298 217.5,-298 217.5,-286 217.5,-286 217.5,-280 223.5,-274 229.5,-274 229.5,-274 271.5,-274 271.5,-274 277.5,-274 283.5,-280 283.5,-286 283.5,-286 283.5,-298 283.5,-298 283.5,-304 277.5,-310 271.5,-310"/>
<text text-anchor="middle" x="250.5" y="-289.5" font-family="Helvetica,sans-Serif" font-size="10.00">SelectStmt</text>
</g>
<!-- n13&#45;&gt;n3 -->
<g id="edge4" class="edge">
<title>n13&#45;&gt;n3</title>
<path fill="none" stroke="#888888" stroke-width="0.9" d="M307.6,-339.85C297.98,-331.96 286.48,-322.52 276.32,-314.19"/>
<polygon fill="#888888" stroke="#888888" stroke-width="0.9" points="277.43,-312.38 271.46,-310.2 274.77,-315.63 277.43,-312.38"/>
</g>
<!-- n14 -->
<g id="node15" class="node">
<title>n14</title>
<path fill="#e8e8e8" stroke="#333333" stroke-width="1.6" d="M444.5,-310C444.5,-310 402.5,-310 402.5,-310 396.5,-310 390.5,-304 390.5,-298 390.5,-298 390.5,-286 390.5,-286 390.5,-280 396.5,-274 402.5,-274 402.5,-274 444.5,-274 444.5,-274 450.5,-274 456.5,-280 456.5,-286 456.5,-286 456.5,-298 456.5,-298 456.5,-304 450.5,-310 444.5,-310"/>
<text text-anchor="middle" x="423.5" y="-289.5" font-family="Helvetica,sans-Serif" font-size="10.00">SelectStmt</text>
</g>
<!-- n13&#45;&gt;n14 -->
<g id="edge14" class="edge">
<title>n13&#45;&gt;n14</title>
<path fill="none" stroke="#888888" stroke-width="0.9" d="M353.96,-339.85C365.88,-331.81 380.19,-322.17 392.72,-313.73"/>
<polygon fill="#888888" stroke="#888888" stroke-width="0.9" points="394.17,-315.29 397.97,-310.2 391.82,-311.81 394.17,-315.29"/>
</g>
<!-- n5 -->
<g id="node6" class="node">
<title>n5</title>
<path fill="#f2f2f2" stroke="#333333" stroke-width="1.1" d="M136.5,-244C136.5,-244 100.5,-244 100.5,-244 94.5,-244 88.5,-238 88.5,-232 88.5,-232 88.5,-220 88.5,-220 88.5,-214 94.5,-208 100.5,-208 100.5,-208 136.5,-208 136.5,-208 142.5,-208 148.5,-214 148.5,-220 148.5,-220 148.5,-232 148.5,-232 148.5,-238 142.5,-244 136.5,-244"/>
<text text-anchor="middle" x="118.5" y="-223.5" font-family="Helvetica,sans-Serif" font-size="10.00">SelectList</text>
</g>
<!-- n3&#45;&gt;n5 -->
<g id="edge5" class="edge">
<title>n3&#45;&gt;n5</title>
<path fill="none" stroke="#888888" stroke-width="0.9" d="M217.19,-274.85C197.92,-265.51 173.68,-253.75 154.05,-244.23"/>
<polygon fill="#888888" stroke="#888888" stroke-width="0.9" points="154.95,-242.34 148.64,-241.61 153.12,-246.12 154.95,-242.34"/>
</g>
<!-- n8 -->
<g id="node9" class="node">
<title>n8</title>
<path fill="#f2f2f2" stroke="#333333" stroke-width="1.1" d="M226.5,-244C226.5,-244 180.5,-244 180.5,-244 174.5,-244 168.5,-238 168.5,-232 168.5,-232 168.5,-220 168.5,-220 168.5,-214 174.5,-208 180.5,-208 180.5,-208 226.5,-208 226.5,-208 232.5,-208 238.5,-214 238.5,-220 238.5,-220 238.5,-232 238.5,-232 238.5,-238 232.5,-244 226.5,-244"/>
<text text-anchor="middle" x="203.5" y="-223.5" font-family="Helvetica,sans-Serif" font-size="10.00">FromClause</text>
</g>
<!-- n3&#45;&gt;n8 -->
<g id="edge8" class="edge">
<title>n3&#45;&gt;n8</title>
<path fill="none" stroke="#888888" stroke-width="0.9" d="M237.9,-273.85C232.32,-266.24 225.68,-257.2 219.73,-249.1"/>
<polygon fill="#888888" stroke="#888888" stroke-width="0.9" points="221.37,-247.79 216.13,-244.2 217.99,-250.28 221.37,-247.79"/>
</g>
<!-- n12 -->
<g id="node11" class="node">
<title>n12</title>
<path fill="#f2f2f2" stroke="#333333" stroke-width="1.1" d="M324,-244C324,-244 271,-244 271,-244 265,-244 259,-238 259,-232 259,-232 259,-220 259,-220 259,-214 265,-208 271,-208 271,-208 324,-208 324,-208 330,-208 336,-214 336,-220 336,-220 336,-232 336,-232 336,-238 330,-244 324,-244"/>
<text text-anchor="middle" x="297.5" y="-223.5" font-family="Helvetica,sans-Serif" font-size="10.00">WhereClause</text>
</g>
<!-- n3&#45;&gt;n12 -->
<g id="edge10" class="edge">
<title>n3&#45;&gt;n12</title>
<path fill="none" stroke="#888888" stroke-width="0.9" d="M263.1,-273.85C268.68,-266.24 275.32,-257.2 281.27,-249.1"/>
<polygon fill="#888888" stroke="#888888" stroke-width="0.9" points="283.01,-250.28 284.87,-244.2 279.63,-247.79 283.01,-250.28"/>
</g>
<!-- n4 -->
<g id="node7" class="node">
<title>n4</title>
<path fill="#fbfbfb" stroke="#333333" stroke-width="0.8" d="M55,-175.5C55,-175.5 12,-175.5 12,-175.5 6,-175.5 0,-169.5 0,-163.5 0,-163.5 0,-151.5 0,-151.5 0,-145.5 6,-139.5 12,-139.5 12,-139.5 55,-139.5 55,-139.5 61,-139.5 67,-145.5 67,-151.5 67,-151.5 67,-163.5 67,-163.5 67,-169.5 61,-175.5 55,-175.5"/>
<text text-anchor="middle" x="33.5" y="-160.5" font-family="Helvetica,sans-Serif" font-size="10.00">ColumnRef</text>
<text text-anchor="middle" x="33.5" y="-149.5" font-family="Helvetica,sans-Serif" font-size="10.00">id</text>
</g>
<!-- n5&#45;&gt;n4 -->
<g id="edge6" class="edge">
<title>n5&#45;&gt;n4</title>
<path fill="none" stroke="#888888" stroke-width="0.9" d="M96.61,-207.87C85.51,-199.19 71.92,-188.56 60.21,-179.4"/>
<polygon fill="#888888" stroke="#888888" stroke-width="0.9" points="61.34,-177.61 55.32,-175.57 58.75,-180.92 61.34,-177.61"/>
</g>
<!-- n6 -->
<g id="node8" class="node">
<title>n6</title>
<path fill="#fbfbfb" stroke="#333333" stroke-width="0.8" d="M142,-175.5C142,-175.5 99,-175.5 99,-175.5 93,-175.5 87,-169.5 87,-163.5 87,-163.5 87,-151.5 87,-151.5 87,-145.5 93,-139.5 99,-139.5 99,-139.5 142,-139.5 142,-139.5 148,-139.5 154,-145.5 154,-151.5 154,-151.5 154,-163.5 154,-163.5 154,-169.5 148,-175.5 142,-175.5"/>
<text text-anchor="middle" x="120.5" y="-160.5" font-family="Helvetica,sans-Serif" font-size="10.00">ColumnRef</text>
<text text-anchor="middle" x="120.5" y="-149.5" font-family="Helvetica,sans-Serif" font-size="10.00">parent_id</text>
</g>
<!-- n5&#45;&gt;n6 -->
<g id="edge7" class="edge">
<title>n5&#45;&gt;n6</title>
<path fill="none" stroke="#888888" stroke-width="0.9" d="M119.02,-207.87C119.25,-199.95 119.54,-190.41 119.8,-181.83"/>
<polygon fill="#888888" stroke="#888888" stroke-width="0.9" points="121.9,-181.86 119.98,-175.8 117.7,-181.73 121.9,-181.86"/>
</g>
<!-- n7 -->
<g id="node10" class="node">
<title>n7</title>
<path fill="#fbfbfb" stroke="#333333" stroke-width="0.8" d="M219,-175.5C219,-175.5 188,-175.5 188,-175.5 182,-175.5 176,-169.5 176,-163.5 176,-163.5 176,-151.5 176,-151.5 176,-145.5 182,-139.5 188,-139.5 188,-139.5 219,-139.5 219,-139.5 225,-139.5 231,-145.5 231,-151.5 231,-151.5 231,-163.5 231,-163.5 231,-169.5 225,-175.5 219,-175.5"/>
<text text-anchor="middle" x="203.5" y="-160.5" font-family="Helvetica,sans-Serif" font-size="10.00">TableRef</text>
<text text-anchor="middle" x="203.5" y="-149.5" font-family="Helvetica,sans-Serif" font-size="10.00">nodes</text>
</g>
<!-- n8&#45;&gt;n7 -->
<g id="edge9" class="edge">
<title>n8&#45;&gt;n7</title>
<path fill="none" stroke="#888888" stroke-width="0.9" d="M203.5,-207.87C203.5,-199.95 203.5,-190.41 203.5,-181.83"/>
<polygon fill="#888888" stroke="#888888" stroke-width="0.9" points="205.6,-181.8 203.5,-175.8 201.4,-181.8 205.6,-181.8"/>
</g>
<!-- n11 -->
<g id="node12" class="node">
<title>n11</title>
<path fill="#ffffff" stroke="#333333" stroke-width="1.1" d="M311.5,-175.5C311.5,-175.5 269.5,-175.5 269.5,-175.5 263.5,-175.5 257.5,-169.5 257.5,-163.5 257.5,-163.5 257.5,-151.5 257.5,-151.5 257.5,-145.5 263.5,-139.5 269.5,-139.5 269.5,-139.5 311.5,-139.5 311.5,-139.5 317.5,-139.5 323.5,-145.5 323.5,-151.5 323.5,-151.5 323.5,-163.5 323.5,-163.5 323.5,-169.5 317.5,-175.5 311.5,-175.5"/>
<text text-anchor="middle" x="290.5" y="-160.5" font-family="Helvetica,sans-Serif" font-size="10.00">BinaryExpr</text>
<text text-anchor="middle" x="290.5" y="-149.5" font-family="Helvetica,sans-Serif" font-size="10.00">=</text>
</g>
<!-- n12&#45;&gt;n11 -->
<g id="edge11" class="edge">
<title>n12&#45;&gt;n11</title>
<path fill="none" stroke="#888888" stroke-width="0.9" d="M295.7,-207.87C294.86,-199.95 293.86,-190.41 292.96,-181.83"/>
<polygon fill="#888888" stroke="#888888" stroke-width="0.9" points="295.04,-181.55 292.32,-175.8 290.86,-181.99 295.04,-181.55"/>
</g>
<!-- n9 -->
<g id="node13" class="node">
<title>n9</title>
<path fill="#fbfbfb" stroke="#333333" stroke-width="0.8" d="M265,-104.5C265,-104.5 222,-104.5 222,-104.5 216,-104.5 210,-98.5 210,-92.5 210,-92.5 210,-80.5 210,-80.5 210,-74.5 216,-68.5 222,-68.5 222,-68.5 265,-68.5 265,-68.5 271,-68.5 277,-74.5 277,-80.5 277,-80.5 277,-92.5 277,-92.5 277,-98.5 271,-104.5 265,-104.5"/>
<text text-anchor="middle" x="243.5" y="-89.5" font-family="Helvetica,sans-Serif" font-size="10.00">ColumnRef</text>
<text text-anchor="middle" x="243.5" y="-78.5" font-family="Helvetica,sans-Serif" font-size="10.00">id</text>
</g>
<!-- n11&#45;&gt;n9 -->
<g id="edge12" class="edge">
<title>n11&#45;&gt;n9</title>
<path fill="none" stroke="#888888" stroke-width="0.9" d="M278.88,-139.44C272.83,-130.55 265.34,-119.57 258.82,-109.99"/>
<polygon fill="#888888" stroke="#888888" stroke-width="0.9" points="260.42,-108.62 255.31,-104.84 256.95,-110.98 260.42,-108.62"/>
</g>
<!-- n10 -->
<g id="node14" class="node">
<title>n10</title>
<path fill="#ffffff" stroke="#333333" stroke-width="0.8" d="M363.5,-104.5C363.5,-104.5 309.5,-104.5 309.5,-104.5 303.5,-104.5 297.5,-98.5 297.5,-92.5 297.5,-92.5 297.5,-80.5 297.5,-80.5 297.5,-74.5 303.5,-68.5 309.5,-68.5 309.5,-68.5 363.5,-68.5 363.5,-68.5 369.5,-68.5 375.5,-74.5 375.5,-80.5 375.5,-80.5 375.5,-92.5 375.5,-92.5 375.5,-98.5 369.5,-104.5 363.5,-104.5"/>
<text text-anchor="middle" x="336.5" y="-89.5" font-family="Helvetica,sans-Serif" font-size="10.00">IntegerLiteral</text>
<text text-anchor="middle" x="336.5" y="-78.5" font-family="Helvetica,sans-Serif" font-size="10.00">42</text>
</g>
<!-- n11&#45;&gt;n10 -->
<g id="edge13" class="edge">
<title>n11&#45;&gt;n10</title>
<path fill="none" stroke="#888888" stroke-width="0.9" d="M301.87,-139.44C307.8,-130.55 315.12,-119.57 321.51,-109.99"/>
<polygon fill="#888888" stroke="#888888" stroke-width="0.9" points="323.36,-111 324.94,-104.84 319.86,-108.67 323.36,-111"/>
</g>
<!-- n16 -->
<g id="node16" class="node">
<title>n16</title>
<path fill="#f2f2f2" stroke="#333333" stroke-width="1.1" d="M441.5,-244C441.5,-244 405.5,-244 405.5,-244 399.5,-244 393.5,-238 393.5,-232 393.5,-232 393.5,-220 393.5,-220 393.5,-214 399.5,-208 405.5,-208 405.5,-208 441.5,-208 441.5,-208 447.5,-208 453.5,-214 453.5,-220 453.5,-220 453.5,-232 453.5,-232 453.5,-238 447.5,-244 441.5,-244"/>
<text text-anchor="middle" x="423.5" y="-223.5" font-family="Helvetica,sans-Serif" font-size="10.00">SelectList</text>
</g>
<!-- n14&#45;&gt;n16 -->
<g id="edge15" class="edge">
<title>n14&#45;&gt;n16</title>
<path fill="none" stroke="#888888" stroke-width="0.9" d="M423.5,-273.85C423.5,-266.68 423.5,-258.22 423.5,-250.49"/>
<polygon fill="#888888" stroke="#888888" stroke-width="0.9" points="425.6,-250.2 423.5,-244.2 421.4,-250.2 425.6,-250.2"/>
</g>
<!-- n19 -->
<g id="node19" class="node">
<title>n19</title>
<path fill="#f2f2f2" stroke="#333333" stroke-width="1.1" d="M568.5,-244C568.5,-244 522.5,-244 522.5,-244 516.5,-244 510.5,-238 510.5,-232 510.5,-232 510.5,-220 510.5,-220 510.5,-214 516.5,-208 522.5,-208 522.5,-208 568.5,-208 568.5,-208 574.5,-208 580.5,-214 580.5,-220 580.5,-220 580.5,-232 580.5,-232 580.5,-238 574.5,-244 568.5,-244"/>
<text text-anchor="middle" x="545.5" y="-223.5" font-family="Helvetica,sans-Serif" font-size="10.00">FromClause</text>
</g>
<!-- n14&#45;&gt;n19 -->
<g id="edge18" class="edge">
<title>n14&#45;&gt;n19</title>
<path fill="none" stroke="#888888" stroke-width="0.9" d="M456.19,-273.85C471.92,-265.6 490.87,-255.66 507.26,-247.06"/>
<polygon fill="#888888" stroke="#888888" stroke-width="0.9" points="508.38,-248.85 512.72,-244.2 506.43,-245.13 508.38,-248.85"/>
</g>
<!-- n15 -->
<g id="node17" class="node">
<title>n15</title>
<path fill="#fbfbfb" stroke="#333333" stroke-width="0.8" d="M399,-175.5C399,-175.5 356,-175.5 356,-175.5 350,-175.5 344,-169.5 344,-163.5 344,-163.5 344,-151.5 344,-151.5 344,-145.5 350,-139.5 356,-139.5 356,-139.5 399,-139.5 399,-139.5 405,-139.5 411,-145.5 411,-151.5 411,-151.5 411,-163.5 411,-163.5 411,-169.5 405,-175.5 399,-175.5"/>
<text text-anchor="middle" x="377.5" y="-160.5" font-family="Helvetica,sans-Serif" font-size="10.00">ColumnRef</text>
<text text-anchor="middle" x="377.5" y="-149.5" font-family="Helvetica,sans-Serif" font-size="10.00">n.id</text>
</g>
<!-- n16&#45;&gt;n15 -->
<g id="edge16" class="edge">
<title>n16&#45;&gt;n15</title>
<path fill="none" stroke="#888888" stroke-width="0.9" d="M411.65,-207.87C406.01,-199.72 399.18,-189.85 393.12,-181.09"/>
<polygon fill="#888888" stroke="#888888" stroke-width="0.9" points="394.61,-179.54 389.47,-175.8 391.15,-181.93 394.61,-179.54"/>
</g>
<!-- n17 -->
<g id="node18" class="node">
<title>n17</title>
<path fill="#fbfbfb" stroke="#333333" stroke-width="0.8" d="M486,-175.5C486,-175.5 443,-175.5 443,-175.5 437,-175.5 431,-169.5 431,-163.5 431,-163.5 431,-151.5 431,-151.5 431,-145.5 437,-139.5 443,-139.5 443,-139.5 486,-139.5 486,-139.5 492,-139.5 498,-145.5 498,-151.5 498,-151.5 498,-163.5 498,-163.5 498,-169.5 492,-175.5 486,-175.5"/>
<text text-anchor="middle" x="464.5" y="-160.5" font-family="Helvetica,sans-Serif" font-size="10.00">ColumnRef</text>
<text text-anchor="middle" x="464.5" y="-149.5" font-family="Helvetica,sans-Serif" font-size="10.00">n.parent_id</text>
</g>
<!-- n16&#45;&gt;n17 -->
<g id="edge17" class="edge">
<title>n16&#45;&gt;n17</title>
<path fill="none" stroke="#888888" stroke-width="0.9" d="M434.06,-207.87C439.09,-199.72 445.17,-189.85 450.57,-181.09"/>
<polygon fill="#888888" stroke="#888888" stroke-width="0.9" points="452.47,-182.01 453.83,-175.8 448.9,-179.8 452.47,-182.01"/>
</g>
<!-- n18 -->
<g id="node20" class="node">
<title>n18</title>
<path fill="#fbfbfb" stroke="#333333" stroke-width="0.8" d="M561,-178C561,-178 530,-178 530,-178 524,-178 518,-172 518,-166 518,-166 518,-149 518,-149 518,-143 524,-137 530,-137 530,-137 561,-137 561,-137 567,-137 573,-143 573,-149 573,-149 573,-166 573,-166 573,-172 567,-178 561,-178"/>
<text text-anchor="middle" x="545.5" y="-166" font-family="Helvetica,sans-Serif" font-size="10.00">TableRef</text>
<text text-anchor="middle" x="545.5" y="-155" font-family="Helvetica,sans-Serif" font-size="10.00">nodes</text>
<text text-anchor="middle" x="545.5" y="-144" font-family="Helvetica,sans-Serif" font-size="10.00">(n)</text>
</g>
<!-- n19&#45;&gt;n18 -->
<g id="edge19" class="edge">
<title>n19&#45;&gt;n18</title>
<path fill="none" stroke="#888888" stroke-width="0.9" d="M545.5,-207.87C545.5,-200.78 545.5,-192.39 545.5,-184.56"/>
<polygon fill="#888888" stroke="#888888" stroke-width="0.9" points="547.6,-184.16 545.5,-178.16 543.4,-184.16 547.6,-184.16"/>
</g>
<!-- n20 -->
<g id="node21" class="node">
<title>n20</title>
<path fill="#f2f2f2" stroke="#333333" stroke-width="1.1" d="M645.5,-175.5C645.5,-175.5 605.5,-175.5 605.5,-175.5 599.5,-175.5 593.5,-169.5 593.5,-163.5 593.5,-163.5 593.5,-151.5 593.5,-151.5 593.5,-145.5 599.5,-139.5 605.5,-139.5 605.5,-139.5 645.5,-139.5 645.5,-139.5 651.5,-139.5 657.5,-145.5 657.5,-151.5 657.5,-151.5 657.5,-163.5 657.5,-163.5 657.5,-169.5 651.5,-175.5 645.5,-175.5"/>
<text text-anchor="middle" x="625.5" y="-160.5" font-family="Helvetica,sans-Serif" font-size="10.00">JoinClause</text>
<text text-anchor="middle" x="625.5" y="-149.5" font-family="Helvetica,sans-Serif" font-size="10.00">JOIN</text>
</g>
<!-- n19&#45;&gt;n20 -->
<g id="edge20" class="edge">
<title>n19&#45;&gt;n20</title>
<path fill="none" stroke="#888888" stroke-width="0.9" d="M566.1,-207.87C576.46,-199.26 589.11,-188.75 600.07,-179.64"/>
<polygon fill="#888888" stroke="#888888" stroke-width="0.9" points="601.7,-181.02 604.97,-175.57 599.01,-177.79 601.7,-181.02"/>
</g>
<!-- n21 -->
<g id="node22" class="node">
<title>n21</title>
<path fill="#fbfbfb" stroke="#333333" stroke-width="0.8" d="M601.5,-107C601.5,-107 565.5,-107 565.5,-107 559.5,-107 553.5,-101 553.5,-95 553.5,-95 553.5,-78 553.5,-78 553.5,-72 559.5,-66 565.5,-66 565.5,-66 601.5,-66 601.5,-66 607.5,-66 613.5,-72 613.5,-78 613.5,-78 613.5,-95 613.5,-95 613.5,-101 607.5,-107 601.5,-107"/>
<text text-anchor="middle" x="583.5" y="-95" font-family="Helvetica,sans-Serif" font-size="10.00">TableRef</text>
<text text-anchor="middle" x="583.5" y="-84" font-family="Helvetica,sans-Serif" font-size="10.00">ancestors</text>
<text text-anchor="middle" x="583.5" y="-73" font-family="Helvetica,sans-Serif" font-size="10.00">(a)</text>
</g>
<!-- n20&#45;&gt;n21 -->
<g id="edge21" class="edge">
<title>n20&#45;&gt;n21</title>
<path fill="none" stroke="#888888" stroke-width="0.9" d="M615.12,-139.44C610.16,-131.3 604.14,-121.41 598.68,-112.44"/>
<polygon fill="#888888" stroke="#888888" stroke-width="0.9" points="600.46,-111.33 595.55,-107.29 596.87,-113.51 600.46,-111.33"/>
</g>
<!-- n24 -->
<g id="node23" class="node">
<title>n24</title>
<path fill="#ffffff" stroke="#333333" stroke-width="1.1" d="M687.5,-104.5C687.5,-104.5 645.5,-104.5 645.5,-104.5 639.5,-104.5 633.5,-98.5 633.5,-92.5 633.5,-92.5 633.5,-80.5 633.5,-80.5 633.5,-74.5 639.5,-68.5 645.5,-68.5 645.5,-68.5 687.5,-68.5 687.5,-68.5 693.5,-68.5 699.5,-74.5 699.5,-80.5 699.5,-80.5 699.5,-92.5 699.5,-92.5 699.5,-98.5 693.5,-104.5 687.5,-104.5"/>
<text text-anchor="middle" x="666.5" y="-89.5" font-family="Helvetica,sans-Serif" font-size="10.00">BinaryExpr</text>
<text text-anchor="middle" x="666.5" y="-78.5" font-family="Helvetica,sans-Serif" font-size="10.00">=</text>
</g>
<!-- n20&#45;&gt;n24 -->
<g id="edge22" class="edge">
<title>n20&#45;&gt;n24</title>
<path fill="none" stroke="#888888" stroke-width="0.9" d="M635.63,-139.44C640.87,-130.64 647.32,-119.77 652.98,-110.26"/>
<polygon fill="#888888" stroke="#888888" stroke-width="0.9" points="654.94,-111.07 656.2,-104.84 651.33,-108.92 654.94,-111.07"/>
</g>
<!-- n22 -->
<g id="node24" class="node">
<title>n22</title>
<path fill="#fbfbfb" stroke="#333333" stroke-width="0.8" d="M645,-36C645,-36 602,-36 602,-36 596,-36 590,-30 590,-24 590,-24 590,-12 590,-12 590,-6 596,0 602,0 602,0 645,0 645,0 651,0 657,-6 657,-12 657,-12 657,-24 657,-24 657,-30 651,-36 645,-36"/>
<text text-anchor="middle" x="623.5" y="-21" font-family="Helvetica,sans-Serif" font-size="10.00">ColumnRef</text>
<text text-anchor="middle" x="623.5" y="-10" font-family="Helvetica,sans-Serif" font-size="10.00">n.id</text>
</g>
<!-- n24&#45;&gt;n22 -->
<g id="edge23" class="edge">
<title>n24&#45;&gt;n22</title>
<path fill="none" stroke="#888888" stroke-width="0.9" d="M655.43,-68.37C650.15,-60.22 643.77,-50.35 638.1,-41.59"/>
<polygon fill="#888888" stroke="#888888" stroke-width="0.9" points="639.71,-40.2 634.69,-36.3 636.18,-42.48 639.71,-40.2"/>
</g>
<!-- n23 -->
<g id="node25" class="node">
<title>n23</title>
<path fill="#fbfbfb" stroke="#333333" stroke-width="0.8" d="M732,-36C732,-36 689,-36 689,-36 683,-36 677,-30 677,-24 677,-24 677,-12 677,-12 677,-6 683,0 689,0 689,0 732,0 732,0 738,0 744,-6 744,-12 744,-12 744,-24 744,-24 744,-30 738,-36 732,-36"/>
<text text-anchor="middle" x="710.5" y="-21" font-family="Helvetica,sans-Serif" font-size="10.00">ColumnRef</text>
<text text-anchor="middle" x="710.5" y="-10" font-family="Helvetica,sans-Serif" font-size="10.00">a.parent_id</text>
</g>
<!-- n24&#45;&gt;n23 -->
<g id="edge24" class="edge">
<title>n24&#45;&gt;n23</title>
<path fill="none" stroke="#888888" stroke-width="0.9" d="M677.83,-68.37C683.23,-60.22 689.76,-50.35 695.56,-41.59"/>
<polygon fill="#888888" stroke="#888888" stroke-width="0.9" points="697.49,-42.46 699.05,-36.3 693.99,-40.14 697.49,-42.46"/>
</g>
<!-- n26 -->
<g id="node27" class="node">
<title>n26</title>
<path fill="#fbfbfb" stroke="#333333" stroke-width="0.8" d="M430.5,-442C430.5,-442 400.5,-442 400.5,-442 394.5,-442 388.5,-436 388.5,-430 388.5,-430 388.5,-418 388.5,-418 388.5,-412 394.5,-406 400.5,-406 400.5,-406 430.5,-406 430.5,-406 436.5,-406 442.5,-412 442.5,-418 442.5,-418 442.5,-430 442.5,-430 442.5,-436 436.5,-442 430.5,-442"/>
<text text-anchor="middle" x="415.5" y="-421.5" font-family="Helvetica,sans-Serif" font-size="10.00">Star</text>
</g>
<!-- n27&#45;&gt;n26 -->
<g id="edge26" class="edge">
<title>n27&#45;&gt;n26</title>
<path fill="none" stroke="#888888" stroke-width="0.9" d="M414.04,-471.85C414.26,-464.68 414.52,-456.22 414.77,-448.49"/>
<polygon fill="#888888" stroke="#888888" stroke-width="0.9" points="416.87,-448.26 414.96,-442.2 412.68,-448.13 416.87,-448.26"/>
</g>
<!-- n28 -->
<g id="node29" class="node">
<title>n28</title>
<path fill="#fbfbfb" stroke="#333333" stroke-width="0.8" d="M516.5,-442C516.5,-442 480.5,-442 480.5,-442 474.5,-442 468.5,-436 468.5,-430 468.5,-430 468.5,-418 468.5,-418 468.5,-412 474.5,-406 480.5,-406 480.5,-406 516.5,-406 516.5,-406 522.5,-406 528.5,-412 528.5,-418 528.5,-418 528.5,-430 528.5,-430 528.5,-436 522.5,-442 516.5,-442"/>
<text text-anchor="middle" x="498.5" y="-427" font-family="Helvetica,sans-Serif" font-size="10.00">TableRef</text>
<text text-anchor="middle" x="498.5" y="-416" font-family="Helvetica,sans-Serif" font-size="10.00">ancestors</text>
</g>
<!-- n29&#45;&gt;n28 -->
<g id="edge28" class="edge">
<title>n29&#45;&gt;n28</title>
<path fill="none" stroke="#888888" stroke-width="0.9" d="M498.5,-471.85C498.5,-464.68 498.5,-456.22 498.5,-448.49"/>
<polygon fill="#888888" stroke="#888888" stroke-width="0.9" points="500.6,-448.2 498.5,-442.2 496.4,-448.2 500.6,-448.2"/>
</g>
</g>
</svg>
